<?xml version="1.0" encoding="utf-8"?>
<!-- Generator: Adobe Illustrator 18.0.0, SVG Export Plug-In . SVG Version: 6.00 Build 0)  -->
<!DOCTYPE svg PUBLIC "-//W3C//DTD SVG 1.1//EN" "http://www.w3.org/Graphics/SVG/1.1/DTD/svg11.dtd">
<svg version="1.1" id="Layer_1" xmlns="http://www.w3.org/2000/svg" xmlns:xlink="http://www.w3.org/1999/xlink" x="0px" y="0px"
	 viewBox="0 0 595.3 419.5" enable-background="new 0 0 595.3 419.5" xml:space="preserve">
<g>
	<path fill="#FFFFFF" d="M318.8,265h-50.2v-36.4h38.2c3.6,0,6.5-2.9,6.5-6.5c0-3.6-2.9-6.5-6.5-6.5h-38.2v-36.4h50.6
		c3.2,0,5.8,2.6,5.8,5.8s-2.6,5.8-5.8,5.8h-38.9v13h26.6c10,0,18.2,8.2,18.2,18.2s-8.2,18.2-18.2,18.2h-26.6v13h38.5
		c0.3,0,0.6,0,0.8,0c7.4-0.3,14-4.4,17.5-11c3.6-6.9,3.4-14.9-0.8-21.4l-7-11.1l7-11.1c4.1-6.5,4.4-14.5,0.8-21.4
		c-3.5-6.7-10.1-10.8-17.5-11c-0.3,0-0.6,0-0.8,0h-63.2v93c0,3.2-2.6,5.8-5.8,5.8s-5.8-2.6-5.8-5.8V154.5h74.9c0.4,0,0.8,0,1.2,0
		c11.7,0.4,21.9,6.8,27.4,17.2c5.6,10.6,5.2,23-1.2,33.1l-3.1,4.9l3.1,4.9c6.4,10.1,6.8,22.5,1.2,33.1
		c-5.5,10.4-15.8,16.9-27.4,17.2C319.6,265,319.2,265,318.8,265z"/>
</g>
</svg>
