<?xml version="1.0" encoding="utf-8"?>
<!-- Generator: Adobe Illustrator 18.0.0, SVG Export Plug-In . SVG Version: 6.00 Build 0)  -->
<!DOCTYPE svg PUBLIC "-//W3C//DTD SVG 1.1//EN" "http://www.w3.org/Graphics/SVG/1.1/DTD/svg11.dtd">
<svg version="1.1" id="Layer_1" xmlns="http://www.w3.org/2000/svg" xmlns:xlink="http://www.w3.org/1999/xlink" x="0px" y="0px"
	 viewBox="0 0 595.3 419.5" enable-background="new 0 0 595.3 419.5" xml:space="preserve">
<g>
	<path fill="#000000" d="M226.2,265h-50.2v-36.4h38.2c3.6,0,6.5-2.9,6.5-6.5c0-3.6-2.9-6.5-6.5-6.5h-38.2v-36.4h50.6
		c3.2,0,5.8,2.6,5.8,5.8s-2.6,5.8-5.8,5.8h-38.9v13h26.6c10,0,18.2,8.2,18.2,18.2s-8.2,18.2-18.2,18.2h-26.6v13h38.5
		c0.3,0,0.6,0,0.8,0c7.4-0.3,14-4.4,17.5-11c3.6-6.9,3.4-14.9-0.8-21.4l-7-11.1l7-11.1c4.1-6.5,4.4-14.5,0.8-21.4
		c-3.5-6.7-10.1-10.8-17.5-11c-0.3,0-0.6,0-0.8,0H163v93c0,3.2-2.6,5.8-5.8,5.8s-5.8-2.6-5.8-5.8V154.5h74.9c0.4,0,0.8,0,1.2,0
		c11.7,0.4,21.9,6.8,27.4,17.2c5.6,10.6,5.2,23-1.2,33.1l-3.1,4.9l3.1,4.9c6.4,10.1,6.8,22.5,1.2,33.1
		c-5.5,10.4-15.8,16.9-27.4,17.2C227.1,265,226.7,265,226.2,265z"/>
</g>
<g>
	<path fill="#000000" d="M318.4,201.2l-5.9-0.7l0.5-9.5h23.9l0.5-11.6h-35.5l-1.4,26.4c-0.2,1.5,0.3,2.9,1.2,4
		c1,1.1,2.3,1.7,3.7,1.8l5.6,0.6c2.4,0.2,4.3,0.4,5.5,0.5c1.2,0.1,2.5,0.4,3.9,0.7c1.7,0.3,2.4,0.7,2.6,0.9c0.5,0.3,1,0.8,1.6,1.5
		c0.5,0.5,0.7,1.1,0.9,1.9c0.2,0.9,0.2,2.1,0.1,3.4c-0.1,3-0.8,5.1-2,6.3c-0.9,0.8-3,1.7-8.1,1.7c-4.4,0-9.3-0.4-14.5-1.2l-1.5-0.2
		l-1.5,11.4l1.4,0.3c6.8,1.3,13.1,2,18.7,2c4,0,7.4-0.5,10.2-1.6c2.9-1.1,5.2-2.7,6.7-4.8c1.4-2,2.5-4.1,3.1-6.3
		c0.6-2.2,0.9-4.6,0.9-7.3c0.1-6.2-1.5-11-4.7-14.2C331,203.8,325.9,201.9,318.4,201.2z"/>
	<path fill="#000000" d="M373.5,195c-4.7,0-9,1.5-12.9,4.4c0.2-1.6,0.3-3.5,0.3-5.5v-15.3h-13.2v59.1l0.9,0.4c2.6,1,5.9,1.9,9.8,2.4
		c3.9,0.5,7.5,0.8,10.8,0.8c7.7,0,13.1-2.1,16.3-6.1c3-3.9,4.5-9.7,4.5-17.2c0-8-1.3-13.7-3.9-17.3C383.4,196.9,379.2,195,373.5,195
		z M360.9,210.4c1.9-1.3,3.5-2.3,4.7-3c1.2-0.6,2.6-0.9,4-0.9c2.8,0,4.7,0.7,5.4,2c0.6,1.1,1.4,3.6,1.5,9.5c-0.1,6-1,8.7-1.8,9.8
		c-1.1,1.5-2.9,2.3-5.8,2.4c-0.4,0-0.8,0-1.1,0c0,0,0,0,0,0c-2.3,0-4.6-0.2-6.9-0.7V210.4z"/>
	<rect x="399" y="196.1" fill="#000000" width="13.2" height="44.1"/>
	<path fill="#000000" d="M407.9,178.3h-4.7c-2.8,0-4.4,1.7-4.4,4.4v4.6c0,2.8,1.7,4.4,4.4,4.4h4.7c2.8,0,4.4-1.7,4.4-4.4v-4.6
		C412.3,179.9,410.7,178.3,407.9,178.3z"/>
	<path fill="#000000" d="M452.2,206.5v-10.4h-12.1v-11.8h-13.2v11.9l-7.4,0.4v9.9h7.5v21.2c0,4.2,1.1,7.6,3.3,9.9
		c2.2,2.4,5.4,3.6,9.4,3.6c4.2,0,7.9-0.5,11-1.5l1.2-0.4l-1.5-10.1h-6.9c-2,0-2.6-0.4-2.8-0.6c-0.2-0.2-0.6-0.8-0.6-2.7v-19.4H452.2
		z"/>
</g>
</svg>
