<!-- Generated by IcoMoon.io -->
<svg version="1.1" xmlns="http://www.w3.org/2000/svg" width="45" height="32" viewBox="0 0 45 32">
<title>bit</title>
<path fill="#fff" d="M24.318 20.215h-3.829v-2.777h2.914c0.275 0 0.496-0.221 0.496-0.496s-0.221-0.496-0.496-0.496h-2.914v-2.777h3.86c0.244 0 0.442 0.198 0.442 0.442s-0.198 0.442-0.442 0.442h-2.967v0.992h2.029c0.763 0 1.388 0.626 1.388 1.388s-0.625 1.388-1.388 1.388h-2.029v0.992h2.937c0.023 0 0.046 0 0.061 0 0.564-0.023 1.068-0.336 1.335-0.839 0.275-0.526 0.259-1.137-0.061-1.632l-0.534-0.847 0.534-0.847c0.313-0.496 0.336-1.106 0.061-1.632-0.267-0.511-0.77-0.824-1.335-0.839-0.023 0-0.046 0-0.061 0h-4.821v7.094c0 0.244-0.198 0.442-0.442 0.442s-0.442-0.198-0.442-0.442v-7.987h5.713c0.030 0 0.061 0 0.092 0 0.892 0.030 1.671 0.519 2.090 1.312 0.427 0.809 0.397 1.754-0.092 2.525l-0.236 0.374 0.236 0.374c0.488 0.77 0.519 1.716 0.092 2.525-0.42 0.793-1.205 1.289-2.090 1.312-0.038 0.008-0.069 0.008-0.099 0.008z"></path>
</svg>
