<!-- Generated by IcoMoon.io -->
<svg version="1.1" xmlns="http://www.w3.org/2000/svg" width="45" height="32" viewBox="0 0 45 32">
<title>bit_2</title>
<path fill="#fff" d="M17.255 20.215h-3.829v-2.777h2.914c0.275 0 0.496-0.221 0.496-0.496s-0.221-0.496-0.496-0.496h-2.914v-2.777h3.86c0.244 0 0.442 0.198 0.442 0.442s-0.198 0.442-0.442 0.442h-2.967v0.992h2.029c0.763 0 1.388 0.626 1.388 1.388s-0.625 1.388-1.388 1.388h-2.029v0.992h2.937c0.023 0 0.046 0 0.061 0 0.564-0.023 1.068-0.336 1.335-0.839 0.275-0.526 0.259-1.137-0.061-1.632l-0.534-0.847 0.534-0.847c0.313-0.496 0.336-1.106 0.061-1.632-0.267-0.511-0.77-0.824-1.335-0.839-0.023 0-0.046 0-0.061 0h-4.821v7.094c0 0.244-0.198 0.442-0.442 0.442s-0.442-0.198-0.442-0.442v-7.987h5.713c0.030 0 0.061 0 0.092 0 0.892 0.030 1.671 0.519 2.090 1.312 0.427 0.809 0.397 1.754-0.092 2.525l-0.236 0.374 0.236 0.374c0.488 0.77 0.519 1.716 0.092 2.525-0.42 0.793-1.205 1.289-2.090 1.312-0.030 0.008-0.061 0.008-0.099 0.008z"></path>
<path fill="#fff" d="M24.288 15.348l-0.45-0.053 0.038-0.725h1.823l0.038-0.885h-2.708l-0.107 2.014c-0.015 0.114 0.023 0.221 0.092 0.305 0.076 0.084 0.175 0.13 0.282 0.137l0.427 0.046c0.183 0.015 0.328 0.030 0.42 0.038s0.191 0.030 0.297 0.053c0.13 0.023 0.183 0.053 0.198 0.069 0.038 0.023 0.076 0.061 0.122 0.114 0.038 0.038 0.053 0.084 0.069 0.145 0.015 0.069 0.015 0.16 0.008 0.259-0.008 0.229-0.061 0.389-0.153 0.481-0.069 0.061-0.229 0.13-0.618 0.13-0.336 0-0.709-0.030-1.106-0.092l-0.114-0.015-0.114 0.87 0.107 0.023c0.519 0.099 0.999 0.153 1.426 0.153 0.305 0 0.564-0.038 0.778-0.122 0.221-0.084 0.397-0.206 0.511-0.366 0.107-0.153 0.191-0.313 0.236-0.481s0.069-0.351 0.069-0.557c0.008-0.473-0.114-0.839-0.359-1.083-0.252-0.259-0.641-0.404-1.213-0.458z"></path>
<path fill="#fff" d="M28.491 14.875c-0.359 0-0.687 0.114-0.984 0.336 0.015-0.122 0.023-0.267 0.023-0.42v-1.167h-1.007v4.508l0.069 0.030c0.198 0.076 0.45 0.145 0.748 0.183s0.572 0.061 0.824 0.061c0.587 0 0.999-0.16 1.243-0.465 0.229-0.297 0.343-0.74 0.343-1.312 0-0.61-0.099-1.045-0.297-1.32-0.206-0.29-0.526-0.435-0.961-0.435zM27.53 16.050c0.145-0.099 0.267-0.175 0.359-0.229 0.092-0.046 0.198-0.069 0.305-0.069 0.214 0 0.359 0.053 0.412 0.153 0.046 0.084 0.107 0.275 0.114 0.725-0.008 0.458-0.076 0.664-0.137 0.748-0.084 0.114-0.221 0.175-0.442 0.183-0.030 0-0.061 0-0.084 0 0 0 0 0 0 0-0.175 0-0.351-0.015-0.526-0.053v-1.457z"></path>
<path fill="#fff" d="M30.436 14.959h1.007v3.364h-1.007v-3.364z"></path>
<path fill="#fff" d="M31.115 13.601h-0.359c-0.214 0-0.336 0.13-0.336 0.336v0.351c0 0.214 0.13 0.336 0.336 0.336h0.359c0.214 0 0.336-0.13 0.336-0.336v-0.351c0-0.214-0.122-0.336-0.336-0.336z"></path>
<path fill="#fff" d="M34.494 15.752v-0.793h-0.923v-0.9h-1.007v0.908l-0.564 0.030v0.755h0.572v1.617c0 0.32 0.084 0.58 0.252 0.755 0.168 0.183 0.412 0.275 0.717 0.275 0.32 0 0.603-0.038 0.839-0.114l0.092-0.030-0.114-0.77h-0.526c-0.153 0-0.198-0.030-0.214-0.046s-0.046-0.061-0.046-0.206v-1.48h0.923z"></path>
</svg>
