<?xml version="1.0" encoding="utf-8"?>
<!-- Generator: Adobe Illustrator 18.0.0, SVG Export Plug-In . SVG Version: 6.00 Build 0)  -->
<!DOCTYPE svg PUBLIC "-//W3C//DTD SVG 1.1//EN" "http://www.w3.org/Graphics/SVG/1.1/DTD/svg11.dtd">
<svg version="1.1" id="Layer_1" xmlns="http://www.w3.org/2000/svg" xmlns:xlink="http://www.w3.org/1999/xlink" x="0px" y="0px"
	 viewBox="0 0 605.1 526.5" enable-background="new 0 0 605.1 526.5" xml:space="preserve">
<g>
	<g>
		<linearGradient id="SVGID_1_" gradientUnits="userSpaceOnUse" x1="163.4413" y1="459.6913" x2="396.6524" y2="55.7578">
			<stop  offset="0" style="stop-color:#2D4F9E"/>
			<stop  offset="1" style="stop-color:#5BA69C"/>
		</linearGradient>
		<path fill="url(#SVGID_1_)" d="M460.7,137.3c-53-14.5-106.2-37.1-154.1-65.4c-2.5-1.5-5.7-1.5-8.2,0
			c-49.2,29.1-99.6,50.4-154.1,65.4c-3.5,1-6,4.2-6,7.8v82.7c0,85.2,39.3,141.6,72.3,173.9c35.5,34.8,76.9,54,91.9,54
			c15,0,56.4-19.2,91.9-54c33-32.3,72.3-88.7,72.3-173.9v-82.7C466.7,141.4,464.2,138.2,460.7,137.3L460.7,137.3z M450.5,227.8
			c0,79.6-36.7,132.2-67.4,162.4c-34.9,34.2-72.2,49.4-80.5,49.4c-8.3,0-45.6-15.2-80.5-49.4c-30.8-30.1-67.4-82.8-67.4-162.4v-76.6
			c52.1-14.8,100.6-35.4,148-62.9c46.2,26.8,97.1,48.5,148,62.9V227.8z M450.5,227.8"/>
	</g>
	<linearGradient id="SVGID_2_" gradientUnits="userSpaceOnUse" x1="87.2526" y1="357.9833" x2="317.0226" y2="-39.9901">
		<stop  offset="0" style="stop-color:#2D4F9E"/>
		<stop  offset="1" style="stop-color:#5BA69C"/>
	</linearGradient>
	<path fill="url(#SVGID_2_)" d="M230.8,150.3c-1.6-4.2-6.3-6.2-10.5-4.6c-14.5,5.7-29.3,10.9-44.1,15.6c-3.4,1.1-5.7,4.2-5.7,7.7
		v31.3c0,4.5,3.6,8.1,8.1,8.1c4.5,0,8.1-3.6,8.1-8.1V175c13.3-4.3,26.6-9.1,39.5-14.2C230.4,159.2,232.4,154.5,230.8,150.3
		L230.8,150.3z M230.8,150.3"/>
	<linearGradient id="SVGID_3_" gradientUnits="userSpaceOnUse" x1="109.4688" y1="380.5385" x2="343.9672" y2="-25.6246">
		<stop  offset="0" style="stop-color:#2D4F9E"/>
		<stop  offset="1" style="stop-color:#5BA69C"/>
	</linearGradient>
	<path fill="url(#SVGID_3_)" d="M246.1,151.8c1.1,0,2.2-0.2,3.2-0.7l0.1-0.1c4.1-1.8,5.9-6.6,4.1-10.7c-1.8-4.1-6.6-6-10.7-4.2
		l-0.1,0.1c-4.1,1.8-5.9,6.6-4.2,10.7C240,150,243,151.8,246.1,151.8L246.1,151.8z M246.1,151.8"/>
	<linearGradient id="SVGID_4_" gradientUnits="userSpaceOnUse" x1="269.7188" y1="538.9492" x2="499.7855" y2="140.462">
		<stop  offset="0" style="stop-color:#2D4F9E"/>
		<stop  offset="1" style="stop-color:#5BA69C"/>
	</linearGradient>
	<path fill="url(#SVGID_4_)" d="M399,331.9c-3.7-2.4-8.8-1.4-11.2,2.3c-6.7,10.2-14.5,20-23.3,29.1c-7.2,7.5-15,14.4-23.2,20.7
		c-3.6,2.7-4.2,7.8-1.5,11.3c1.6,2.1,4,3.2,6.4,3.2c1.7,0,3.4-0.5,4.9-1.7c8.8-6.7,17.3-14.2,25.1-22.3c9.5-9.8,18-20.4,25.2-31.5
		C403.8,339.4,402.8,334.4,399,331.9L399,331.9z M399,331.9"/>
	<linearGradient id="SVGID_5_" gradientUnits="userSpaceOnUse" x1="253.2616" y1="530.4081" x2="487.3352" y2="124.9806">
		<stop  offset="0" style="stop-color:#2D4F9E"/>
		<stop  offset="1" style="stop-color:#5BA69C"/>
	</linearGradient>
	<path fill="url(#SVGID_5_)" d="M322.5,396.7L322,397c-3.9,2.2-5.2,7.2-3,11.1c1.5,2.6,4.2,4,7,4c1.4,0,2.8-0.4,4-1.1l0.5-0.3
		c3.9-2.3,5.2-7.2,2.9-11.1C331.3,395.7,326.4,394.4,322.5,396.7L322.5,396.7z M322.5,396.7"/>
	<linearGradient id="SVGID_6_" gradientUnits="userSpaceOnUse" x1="178.1275" y1="454.8401" x2="407.235" y2="58.0143">
		<stop  offset="0" style="stop-color:#2D4F9E"/>
		<stop  offset="1" style="stop-color:#5BA69C"/>
	</linearGradient>
	<path fill="url(#SVGID_6_)" d="M247.3,246.7c-5-5-11.6-7.7-18.6-7.7c-7,0-13.6,2.7-18.6,7.7c-10.3,10.3-10.3,27,0,37.2l47.8,47.8
		c5,5,11.6,7.7,18.6,7.7c7,0,13.6-2.7,18.6-7.7L395,232c10.3-10.3,10.3-27,0-37.2c-5-5-11.6-7.7-18.6-7.7c-7,0-13.6,2.7-18.6,7.7
		l-81.2,81.2L247.3,246.7z M369.2,206.2c1.9-1.9,4.5-3,7.2-3c2.7,0,5.3,1.1,7.2,3c4,4,4,10.4,0,14.3l-99.8,99.8
		c-1.9,1.9-4.5,3-7.2,3c-2.7,0-5.3-1.1-7.2-3l-47.8-47.8c-4-4-4-10.4,0-14.3c1.9-1.9,4.5-3,7.2-3c2.7,0,5.3,1.1,7.2,3l34.9,34.9
		c1.5,1.5,3.6,2.4,5.7,2.4c2.1,0,4.2-0.9,5.7-2.4L369.2,206.2z M369.2,206.2"/>
</g>
</svg>
