<?xml version="1.0" encoding="utf-8"?>
<!-- Generator: Adobe Illustrator 18.0.0, SVG Export Plug-In . SVG Version: 6.00 Build 0)  -->
<!DOCTYPE svg PUBLIC "-//W3C//DTD SVG 1.1//EN" "http://www.w3.org/Graphics/SVG/1.1/DTD/svg11.dtd">
<svg version="1.1" id="Layer_1" xmlns="http://www.w3.org/2000/svg" xmlns:xlink="http://www.w3.org/1999/xlink" x="0px" y="0px"
	 viewBox="0 0 605.1 526.5" enable-background="new 0 0 605.1 526.5" xml:space="preserve">
<g>
	<linearGradient id="SVGID_1_" gradientUnits="userSpaceOnUse" x1="172.1143" y1="516.5926" x2="447.1072" y2="40.2909">
		<stop  offset="0" style="stop-color:#2D4F9E"/>
		<stop  offset="1" style="stop-color:#5BA69C"/>
	</linearGradient>
	<path fill="url(#SVGID_1_)" d="M486.9,263.1l-18.6-2.3c-5.7-13.8-13.8-26.6-23.9-37.7l13.7-57.9c0.6-2.4,0-4.9-1.5-6.8
		c-1.5-1.9-3.8-3-6.3-3h-1.8c-22.7,0-43.1,14.3-51.2,35.2c-5.7-2.3-11.5-4.1-17.5-5.5c-4.3-1-8.6,1.6-9.6,5.9
		c-1,4.3,1.6,8.6,5.9,9.6c20.4,4.8,38.5,15.1,52.8,29.4c0.5,0.8,1.2,1.4,1.9,2c10.4,11,18.7,24.1,24,38.8c1,2.8,3.5,4.8,6.5,5.2
		l23.3,2.9c3.6,0.5,6.4,3.6,6.4,7.3v40.3c0,3.7-2.7,6.8-6.4,7.3l-21.6,2.7c-3.1,0.4-5.7,2.6-6.6,5.5c-6.4,20.5-18.6,38.6-35.2,52.4
		c-1.8,1.5-2.9,3.8-2.9,6.2v44.2c0,4-3.2,7.2-7.2,7.2h-46.4c-4,0-7.2-3.2-7.2-7.2V428c0-4.4-3.6-8-8-8h-67.2c-4.4,0-8,3.6-8,8v16.9
		c0,4-3.2,7.2-7.2,7.2h-46.4c-4,0-7.2-3.2-7.2-7.2v-31.2c0-2.9-1.6-5.6-4.2-7c-35.9-19.5-58.2-57-58.2-97.8
		c0-61.3,49.9-111.2,111.2-111.2h10c4.4,0,8-3.6,8-8s-3.6-8-8-8h-10c-59.4,0-109.4,40.9-123.3,96h-5.9c-10.8,0-19.6-8.8-19.6-19.6
		c0-10.8,8.8-19.6,19.6-19.6c4.4,0,8-3.6,8-8s-3.6-8-8-8c-19.6,0-35.6,16-35.6,35.6c0,19.6,16,35.6,35.6,35.6h2.9
		c-0.6,5-0.9,10-0.9,15.1c0,45.1,23.8,86.6,62.4,109.5v26.6c0,12.8,10.4,23.2,23.2,23.2h46.4c12.8,0,23.2-10.4,23.2-23.2V436h51.2
		v8.9c0,12.8,10.4,23.2,23.2,23.2h46.4c12.8,0,23.2-10.4,23.2-23.2v-40.5c16.2-14.3,28.5-32.3,35.8-52.5l16.6-2.1
		c11.6-1.5,20.4-11.4,20.4-23.1v-40.3C507.3,274.5,498.6,264.6,486.9,263.1L486.9,263.1z M431.1,210.4c-6-4.9-12.4-9.2-19.1-12.9
		c4.4-12.7,15.2-22.1,28.1-25.1L431.1,210.4z M431.1,210.4"/>
	<linearGradient id="SVGID_2_" gradientUnits="userSpaceOnUse" x1="237.2906" y1="567.3375" x2="514.1418" y2="87.8171">
		<stop  offset="0" style="stop-color:#2D4F9E"/>
		<stop  offset="1" style="stop-color:#5BA69C"/>
	</linearGradient>
	<path fill="url(#SVGID_2_)" d="M416.2,261.6c-1.5-1.5-3.6-2.3-5.7-2.3c-2.1,0-4.2,0.9-5.7,2.3c-1.5,1.5-2.3,3.6-2.3,5.7
		c0,2.1,0.9,4.2,2.3,5.7c1.5,1.5,3.6,2.3,5.7,2.3c2.1,0,4.2-0.9,5.7-2.3c1.5-1.5,2.3-3.6,2.3-5.7
		C418.5,265.2,417.7,263.1,416.2,261.6L416.2,261.6z M416.2,261.6"/>
	<linearGradient id="SVGID_3_" gradientUnits="userSpaceOnUse" x1="112.2462" y1="510.1945" x2="425.5573" y2="-32.4763">
		<stop  offset="0" style="stop-color:#2D4F9E"/>
		<stop  offset="1" style="stop-color:#5BA69C"/>
	</linearGradient>
	<path fill="url(#SVGID_3_)" d="M332.3,105.1c-4.4,0-8,3.6-8,8v31.7c0,4.4,3.6,8,8,8s8-3.6,8-8v-31.7
		C340.3,108.7,336.7,105.1,332.3,105.1L332.3,105.1z M332.3,105.1"/>
	<linearGradient id="SVGID_4_" gradientUnits="userSpaceOnUse" x1="121.9721" y1="448.4537" x2="398.8476" y2="-31.1088">
		<stop  offset="0" style="stop-color:#2D4F9E"/>
		<stop  offset="1" style="stop-color:#5BA69C"/>
	</linearGradient>
	<path fill="url(#SVGID_4_)" d="M338,78.5c-1.5-1.5-3.6-2.3-5.7-2.3c-2.1,0-4.2,0.9-5.7,2.3c-1.5,1.5-2.3,3.5-2.3,5.7
		c0,2.1,0.9,4.2,2.3,5.7c1.5,1.5,3.6,2.3,5.7,2.3c2.1,0,4.2-0.9,5.7-2.3c1.5-1.5,2.3-3.6,2.3-5.7C340.3,82,339.5,79.9,338,78.5
		L338,78.5z M338,78.5"/>
	<linearGradient id="SVGID_5_" gradientUnits="userSpaceOnUse" x1="59.9054" y1="432.5505" x2="360.261" y2="-87.6807">
		<stop  offset="0" style="stop-color:#2D4F9E"/>
		<stop  offset="1" style="stop-color:#5BA69C"/>
	</linearGradient>
	<path fill="url(#SVGID_5_)" d="M267.3,58.5c-4.4,0-8,3.6-8,8v13.6c0,4.4,3.6,8,8,8s8-3.6,8-8V66.5
		C275.3,62.1,271.8,58.5,267.3,58.5L267.3,58.5z M267.3,58.5"/>
	<linearGradient id="SVGID_6_" gradientUnits="userSpaceOnUse" x1="103.2369" y1="443.523" x2="381.2565" y2="-38.021">
		<stop  offset="0" style="stop-color:#2D4F9E"/>
		<stop  offset="1" style="stop-color:#5BA69C"/>
	</linearGradient>
	<path fill="url(#SVGID_6_)" d="M188.9,308.8c0-4.4-3.6-8-8-8c-4.4,0-8,3.6-8,8v0.4c0,4.4,3.6,7.9,8,7.9h0c4.4,0,8-3.6,8-8.1V308.8z
		 M188.9,308.8"/>
	<linearGradient id="SVGID_7_" gradientUnits="userSpaceOnUse" x1="103.4246" y1="531.1471" x2="514.4257" y2="-180.7276">
		<stop  offset="0" style="stop-color:#2D4F9E"/>
		<stop  offset="1" style="stop-color:#5BA69C"/>
	</linearGradient>
	<path fill="url(#SVGID_7_)" d="M224.3,371.8c-13.9-8.5-24.8-21.5-30.6-36.6c-1.6-4.1-6.2-6.2-10.3-4.6c-4.1,1.6-6.2,6.2-4.6,10.3
		c7.1,18.4,20.3,34.3,37.2,44.6c1.3,0.8,2.7,1.2,4.1,1.2c2.7,0,5.3-1.4,6.8-3.8C229.3,379,228.1,374.1,224.3,371.8L224.3,371.8z
		 M224.3,371.8"/>
	<linearGradient id="SVGID_8_" gradientUnits="userSpaceOnUse" x1="96.2559" y1="426.8279" x2="373.2874" y2="-53.0048">
		<stop  offset="0" style="stop-color:#2D4F9E"/>
		<stop  offset="1" style="stop-color:#5BA69C"/>
	</linearGradient>
	<path fill="url(#SVGID_8_)" d="M267.3,96.9c-18.5,0-33.6,15.1-33.6,33.6c0,18.5,15.1,33.6,33.6,33.6c18.5,0,33.6-15.1,33.6-33.6
		C300.9,112,285.9,96.9,267.3,96.9L267.3,96.9z M267.3,148.1c-9.7,0-17.6-7.9-17.6-17.6c0-9.7,7.9-17.6,17.6-17.6
		c9.7,0,17.6,7.9,17.6,17.6C284.9,140.2,277,148.1,267.3,148.1L267.3,148.1z M267.3,148.1"/>
	<linearGradient id="SVGID_9_" gradientUnits="userSpaceOnUse" x1="182.5202" y1="467.4926" x2="433.6968" y2="32.4419">
		<stop  offset="0" style="stop-color:#2D4F9E"/>
		<stop  offset="1" style="stop-color:#5BA69C"/>
	</linearGradient>
	<path fill="url(#SVGID_9_)" d="M368.1,228.1h-7.2c3.2-5.1,5-11.2,5-17.6c0-18.5-15.1-33.6-33.6-33.6c-18.5,0-33.6,15.1-33.6,33.6
		c0,6.4,1.8,12.5,5,17.6h-39.6c-4.4,0-8,3.6-8,8c0,4.4,3.6,8,8,8h104c4.4,0,8-3.6,8-8C376.1,231.6,372.6,228.1,368.1,228.1
		L368.1,228.1z M332.3,228.1c-9.7,0-17.6-7.9-17.6-17.6c0-9.7,7.9-17.6,17.6-17.6c9.7,0,17.6,7.9,17.6,17.6
		C349.9,220.2,342,228.1,332.3,228.1L332.3,228.1z M332.3,228.1"/>
</g>
</svg>
