<?xml version="1.0" encoding="utf-8"?>
<!-- Generator: Adobe Illustrator 18.0.0, SVG Export Plug-In . SVG Version: 6.00 Build 0)  -->
<!DOCTYPE svg PUBLIC "-//W3C//DTD SVG 1.1//EN" "http://www.w3.org/Graphics/SVG/1.1/DTD/svg11.dtd">
<svg version="1.1" id="Layer_1" xmlns="http://www.w3.org/2000/svg" xmlns:xlink="http://www.w3.org/1999/xlink" x="0px" y="0px"
	 viewBox="0 0 605.1 526.5" enable-background="new 0 0 605.1 526.5" xml:space="preserve">
<g>
	<linearGradient id="SVGID_1_" gradientUnits="userSpaceOnUse" x1="185.6124" y1="495.2213" x2="436.8628" y2="60.0429">
		<stop  offset="0" style="stop-color:#2D4F9E"/>
		<stop  offset="1" style="stop-color:#5BA69C"/>
	</linearGradient>
	<path fill="url(#SVGID_1_)" d="M491.8,263.3h-7V116c0-19.4-15.7-35-35.1-35.1H155.3c-19.4,0-35,15.7-35.1,35.1v105.2h-7
		c-11.6,0-21,9.4-21,21v182.3c0,11.6,9.4,21,21,21h266.4c3.9,0,7-3.1,7-7c0-19.4-15.7-35-35.1-35.1h-21v-42.1h84.1v63.1
		c0,11.6,9.4,21,21,21h56.1c11.6,0,21-9.4,21-21V284.3C512.9,272.7,503.5,263.3,491.8,263.3L491.8,263.3z M246.4,424.5
		c0,3.9-3.1,7-7,7H113.2c-3.9,0-7-3.1-7-7v-7h140.2V424.5z M246.4,403.5H106.2V242.2c0-3.9,3.1-7,7-7h126.2c3.9,0,7,3.1,7,7V403.5z
		 M351.6,417.5c8.9,0,16.9,5.6,19.8,14H259.2c0.8-2.2,1.3-4.6,1.3-7v-7H351.6z M260.5,403.5v-42.1h14v42.1H260.5z M288.5,403.5
		v-42.1h28v42.1H288.5z M414.7,347.4H260.5v-42.1h154.2V347.4z M414.7,284.3v7H260.5v-49.1c0-3.3-0.8-6.6-2.4-9.5
		c0.1-0.1,0.2-0.1,0.3-0.2l69.4-69.4c2.7-2.8,2.6-7.2-0.2-9.9c-2.7-2.6-7-2.6-9.7,0l-69.4,69.4c-0.2,0.2-0.2,0.4-0.4,0.6
		c-2.7-1.3-5.7-1.9-8.7-1.9H134.3V116c0-11.6,9.4-21,21-21h294.5c11.6,0,21,9.4,21,21v147.2h-35.1
		C424.1,263.3,414.7,272.7,414.7,284.3L414.7,284.3z M498.9,424.5c0,3.9-3.1,7-7,7h-56.1c-3.9,0-7-3.1-7-7v-7h70.1V424.5z
		 M498.9,403.5h-70.1V284.3c0-3.9,3.1-7,7-7h56.1c3.9,0,7,3.1,7,7V403.5z M498.9,403.5"/>
	<linearGradient id="SVGID_2_" gradientUnits="userSpaceOnUse" x1="95.1468" y1="431.7476" x2="350.2742" y2="-10.146">
		<stop  offset="0" style="stop-color:#2D4F9E"/>
		<stop  offset="1" style="stop-color:#5BA69C"/>
	</linearGradient>
	<path fill="url(#SVGID_2_)" d="M176,306.5c-2.7-2.7-7.2-2.7-9.9,0l-29.7,29.7c-2.8,2.7-2.9,7.1-0.2,9.9c2.7,2.8,7.1,2.9,9.9,0.2
		c0.1-0.1,0.1-0.1,0.2-0.2l29.7-29.7C177.2,314.3,174.7,310.2,176,306.5L176,306.5z M176,306.5"/>
	<linearGradient id="SVGID_3_" gradientUnits="userSpaceOnUse" x1="122.8099" y1="456.9105" x2="377.9491" y2="14.9964">
		<stop  offset="0" style="stop-color:#2D4F9E"/>
		<stop  offset="1" style="stop-color:#5BA69C"/>
	</linearGradient>
	<path fill="url(#SVGID_3_)" d="M217.9,306.5c-2.7-2.6-7-2.6-9.7,0l-29.7,29.7c-2.8,2.7-2.9,7.1-0.2,9.9c2.7,2.8,7.1,2.9,9.9,0.2
		c0.1-0.1,0.1-0.1,0.2-0.2l29.7-29.7C220.7,313.7,220.7,309.2,217.9,306.5L217.9,306.5z M217.9,306.5"/>
	<linearGradient id="SVGID_4_" gradientUnits="userSpaceOnUse" x1="164.5186" y1="480.9764" x2="418.5334" y2="41.0098">
		<stop  offset="0" style="stop-color:#2D4F9E"/>
		<stop  offset="1" style="stop-color:#5BA69C"/>
	</linearGradient>
	<path fill="url(#SVGID_4_)" d="M370.4,153.1c-2.7-2.6-7-2.6-9.7,0l-69.4,69.4c-2.8,2.7-2.9,7.1-0.2,9.9c2.7,2.8,7.1,2.9,9.9,0.2
		c0.1-0.1,0.1-0.1,0.2-0.2l69.4-69.4C373.3,160.3,373.2,155.8,370.4,153.1L370.4,153.1z M370.4,153.1"/>
	<linearGradient id="SVGID_5_" gradientUnits="userSpaceOnUse" x1="301.2487" y1="621.8738" x2="557.1322" y2="178.6706">
		<stop  offset="0" style="stop-color:#2D4F9E"/>
		<stop  offset="1" style="stop-color:#5BA69C"/>
	</linearGradient>
	<path fill="url(#SVGID_5_)" d="M478.5,325.5c-2.7-2.6-7-2.6-9.7,0l-19.8,19.8c-2.8,2.7-2.9,7.1-0.2,9.9c2.7,2.8,7.1,2.9,9.9,0.2
		c0.1-0.1,0.1-0.1,0.2-0.2l19.8-19.8C481.4,332.7,481.3,328.2,478.5,325.5L478.5,325.5z M478.5,325.5"/>
	<linearGradient id="SVGID_6_" gradientUnits="userSpaceOnUse" x1="188.4166" y1="524.2448" x2="450.1557" y2="70.8994">
		<stop  offset="0" style="stop-color:#2D4F9E"/>
		<stop  offset="1" style="stop-color:#5BA69C"/>
	</linearGradient>
	<path fill="url(#SVGID_6_)" d="M302.7,319.4L302.7,319.4c-3.9,0-7.1,3.2-7,7c0,3.9,3.2,7,7,7c3.9,0,7-3.1,7-7
		C309.7,322.5,306.5,319.4,302.7,319.4L302.7,319.4z M302.7,319.4"/>
	<linearGradient id="SVGID_7_" gradientUnits="userSpaceOnUse" x1="146.2771" y1="386.677" x2="363.196" y2="10.9626">
		<stop  offset="0" style="stop-color:#2D4F9E"/>
		<stop  offset="1" style="stop-color:#5BA69C"/>
	</linearGradient>
	<path fill="url(#SVGID_7_)" d="M316.6,109h-28c-3.9,0-7,3.1-7,7c0,3.9,3.1,7,7,7h28c3.9,0,7-3.1,7-7
		C323.6,112.2,320.4,109,316.6,109L316.6,109z M316.6,109"/>
</g>
</svg>
