<?xml version="1.0" encoding="utf-8"?>
<!-- Generator: Adobe Illustrator 18.0.0, SVG Export Plug-In . SVG Version: 6.00 Build 0)  -->
<!DOCTYPE svg PUBLIC "-//W3C//DTD SVG 1.1//EN" "http://www.w3.org/Graphics/SVG/1.1/DTD/svg11.dtd">
<svg version="1.1" id="Layer_1" xmlns="http://www.w3.org/2000/svg" xmlns:xlink="http://www.w3.org/1999/xlink" x="0px" y="0px"
	 viewBox="0 0 605.1 526.5" enable-background="new 0 0 605.1 526.5" xml:space="preserve">
<g>
	<linearGradient id="SVGID_1_" gradientUnits="userSpaceOnUse" x1="110.9823" y1="374.983" x2="314.8918" y2="21.8013">
		<stop  offset="0" style="stop-color:#2D4F9E"/>
		<stop  offset="1" style="stop-color:#5BA69C"/>
	</linearGradient>
	<path fill="url(#SVGID_1_)" d="M220.3,231.2h-60.6c-3.9,0-7,3.1-7,7s3.1,7,7,7h60.6c3.9,0,7-3.1,7-7S224.1,231.2,220.3,231.2z"/>
	<linearGradient id="SVGID_2_" gradientUnits="userSpaceOnUse" x1="123.871" y1="395.6088" x2="326.6074" y2="44.459">
		<stop  offset="0" style="stop-color:#2D4F9E"/>
		<stop  offset="1" style="stop-color:#5BA69C"/>
	</linearGradient>
	<path fill="url(#SVGID_2_)" d="M225.6,269.5h-65.9c-3.9,0-7,3.1-7,7s3.1,7,7,7h65.9c3.9,0,7-3.1,7-7S229.4,269.5,225.6,269.5z"/>
	<linearGradient id="SVGID_3_" gradientUnits="userSpaceOnUse" x1="146.489" y1="470.5544" x2="408.1233" y2="17.3903">
		<stop  offset="0" style="stop-color:#2D4F9E"/>
		<stop  offset="1" style="stop-color:#5BA69C"/>
	</linearGradient>
	<path fill="url(#SVGID_3_)" d="M258.5,269.5c-1.8,0-3.6,0.7-4.9,2c-1.3,1.3-2,3.1-2,4.9c0,1.8,0.7,3.6,2,4.9c1.3,1.3,3.1,2,4.9,2
		c1.8,0,3.6-0.7,4.9-2c1.3-1.3,2-3.1,2-4.9c0-1.8-0.7-3.6-2-4.9C262.2,270.2,260.4,269.5,258.5,269.5z"/>
	<linearGradient id="SVGID_4_" gradientUnits="userSpaceOnUse" x1="154.2425" y1="472.0919" x2="416.0047" y2="18.7066">
		<stop  offset="0" style="stop-color:#2D4F9E"/>
		<stop  offset="1" style="stop-color:#5BA69C"/>
	</linearGradient>
	<path fill="url(#SVGID_4_)" d="M332.9,93.4c-38.2,0-69.3,31.1-69.3,69.3c0,38.2,31.1,69.3,69.3,69.3c38.2,0,69.3-31.1,69.3-69.3
		C402.2,124.4,371.1,93.4,332.9,93.4z M332.9,218c-30.5,0-55.3-24.8-55.3-55.3c0-30.5,24.8-55.3,55.3-55.3
		c30.5,0,55.3,24.8,55.3,55.3C388.2,193.1,363.4,218,332.9,218z"/>
	<linearGradient id="SVGID_5_" gradientUnits="userSpaceOnUse" x1="161.2807" y1="489.507" x2="422.8726" y2="36.4165">
		<stop  offset="0" style="stop-color:#2D4F9E"/>
		<stop  offset="1" style="stop-color:#5BA69C"/>
	</linearGradient>
	<path fill="url(#SVGID_5_)" d="M436.7,399.6c21.5,0,38.9-17.5,38.9-38.9v-39.1l0.6-0.2c3.5-1.3,6.6-3.3,9.3-6
		c10.2-10.2,10.2-26.7,0-36.9l-9.9-9.9V159.4c0-21.5-17.5-38.9-38.9-38.9h-10l-0.3-0.6c-16.7-36.5-53.5-60.1-93.5-60.1
		c-40.1,0-76.8,23.6-93.5,60.1l-0.3,0.6h-88.3c-21.5,0-38.9,17.5-38.9,38.9v201.3c0,21.5,17.5,38.9,38.9,38.9h104v21.2l-1,0
		c-21.1,0.4-38.2,17.9-38.2,38.9c0,3.9,3.1,7,7,7h142.2c3.9,0,7-3.1,7-7c0-21-17.1-38.5-38.2-38.9l-1,0v-21.2H436.7z M475.7,288.3
		c2.3,2.3,3.5,5.3,3.5,8.6c0,3.2-1.3,6.3-3.5,8.6c-2.3,2.3-5.3,3.5-8.6,3.5c-3.2,0-6.3-1.3-8.6-3.5l-62.1-62.1l0.9-0.7
		c5.7-4.6,11-9.8,15.6-15.6l0.7-0.9L475.7,288.3z M435.7,162.6c0-9.1-1.2-18.2-3.6-26.9l-0.3-1.3h4.9c13.8,0,25,11.2,25,25v95.1
		l-40-40l0.4-0.7C431,198.3,435.7,180.6,435.7,162.6z M332.9,73.8c49,0,88.9,39.9,88.9,88.9s-39.9,88.9-88.9,88.9
		c-49,0-88.9-39.9-88.9-88.9S283.9,73.8,332.9,73.8z M125.8,159.4c0-13.8,11.2-25,25-25H234l-0.3,1.3c-2.4,8.8-3.6,17.8-3.6,26.9
		c0,9.8,1.4,19.5,4.1,28.9l0.4,1.3h-74.9c-3.9,0-7,3.1-7,7s3.1,7,7,7H240l0.3,0.6c17.1,35.3,53.5,58.1,92.6,58.1
		c18,0,35.7-4.7,51.2-13.7l0.7-0.4l63.9,63.9c3.4,3.4,7.6,5.8,12.2,6.9l0.8,0.2v8.9H125.8V159.4z M332.9,434.8
		c10.5,0,20,6.7,23.5,16.6l0.5,1.3H230.6l0.5-1.3c3.5-10,13-16.6,23.5-16.6H332.9z M268.8,420.8v-21.2h49.9v21.2H268.8z
		 M150.8,385.7c-13.8,0-25-11.2-25-25v-15.4h335.8v15.4c0,13.8-11.2,25-25,25H150.8z"/>
	<linearGradient id="SVGID_6_" gradientUnits="userSpaceOnUse" x1="107.384" y1="563.4869" x2="437.6007" y2="-8.4653">
		<stop  offset="0" style="stop-color:#2D4F9E"/>
		<stop  offset="1" style="stop-color:#5BA69C"/>
	</linearGradient>
	<path fill="url(#SVGID_6_)" d="M332.9,127.7c-3.9,0-7,3.1-7,7s3.1,7,7,7c11.6,0,21,9.4,21,21c0,3.9,3.1,7,7,7s7-3.1,7-7
		C367.8,143.4,352.2,127.7,332.9,127.7z"/>
</g>
</svg>
