<?xml version="1.0" encoding="utf-8"?>
<!-- Generator: Adobe Illustrator 18.0.0, SVG Export Plug-In . SVG Version: 6.00 Build 0)  -->
<!DOCTYPE svg PUBLIC "-//W3C//DTD SVG 1.1//EN" "http://www.w3.org/Graphics/SVG/1.1/DTD/svg11.dtd">
<svg version="1.1" id="Layer_1" xmlns="http://www.w3.org/2000/svg" xmlns:xlink="http://www.w3.org/1999/xlink" x="0px" y="0px"
	 viewBox="0 0 184.3 184.3" enable-background="new 0 0 184.3 184.3" xml:space="preserve">
<g>
	<linearGradient id="SVGID_1_" gradientUnits="userSpaceOnUse" x1="65.3154" y1="145.426" x2="123.1825" y2="45.1972">
		<stop  offset="0" style="stop-color:#2D4F9D"/>
		<stop  offset="1" style="stop-color:#5BA59B"/>
	</linearGradient>
	<path fill="url(#SVGID_1_)" d="M61.6,138.9c0,4.2,3.4,7.6,7.6,7.6H115c4.2,0,7.6-3.4,7.6-7.6V59c0-4.2-3.4-7.6-7.6-7.6h-10.2
		l6.6-10.5c0.6-1,0.3-2.2-0.6-2.7c-0.9-0.6-2.2-0.2-2.7,0.6l-8,12.6H84.2l-8-12.6c-0.6-0.9-1.8-1.2-2.7-0.6c-1,0.6-1.2,1.8-0.6,2.7
		l6.6,10.5H69.3c-4.2,0-7.6,3.4-7.6,7.6V138.9z M66.1,60.2c0-2.4,1.9-4.4,4.3-4.4h26.8l-6.8,10.9c-0.6,1-0.3,2.2,0.6,2.7
		c0.9,0.6,2.2,0.2,2.7-0.6l8.2-13h11.8c2.4,0,4.3,2,4.3,4.4v76.6c0,2.4-1.9,4.4-4.3,4.4H70.4c-2.4,0-4.3-2-4.3-4.4L66.1,60.2
		L66.1,60.2z"/>
	<linearGradient id="SVGID_2_" gradientUnits="userSpaceOnUse" x1="88.0128" y1="125.9991" x2="96.1568" y2="111.8933">
		<stop  offset="0" style="stop-color:#2D4F9D"/>
		<stop  offset="1" style="stop-color:#5BA59B"/>
	</linearGradient>
	<path fill="url(#SVGID_2_)" d="M106.9,119.7c0.4,0,0.7-0.3,0.7-0.7c0-0.4-0.3-0.7-0.7-0.7H77.2c-0.4,0-0.7,0.3-0.7,0.7
		c0,0.4,0.3,0.7,0.7,0.7H106.9z"/>
	<linearGradient id="SVGID_3_" gradientUnits="userSpaceOnUse" x1="89.1488" y1="132.8673" x2="95.1012" y2="122.5574">
		<stop  offset="0" style="stop-color:#2D4F9D"/>
		<stop  offset="1" style="stop-color:#5BA59B"/>
	</linearGradient>
	<path fill="url(#SVGID_3_)" d="M102.6,128.4c0.4,0,0.7-0.3,0.7-0.7s-0.3-0.7-0.7-0.7H81.7c-0.4,0-0.7,0.3-0.7,0.7s0.3,0.7,0.7,0.7
		H102.6z"/>
	<linearGradient id="SVGID_4_" gradientUnits="userSpaceOnUse" x1="86.2552" y1="109.2332" x2="101.0269" y2="83.6479">
		<stop  offset="0" style="stop-color:#2D4F9D"/>
		<stop  offset="1" style="stop-color:#5BA59B"/>
	</linearGradient>
	<path fill="url(#SVGID_4_)" d="M99.6,103.6c-3.4-1.2-5.6-4.3-5.6-7.9v-1l0.9-0.6c2-1.4,3.3-4,3.3-7c0-4.3-2.7-7.9-6.1-7.9
		s-6.1,3.5-6.1,7.9c0,2.9,1.3,5.5,3.3,7l0.9,0.6v1c0,3.5-2.3,6.8-5.6,7.9c-1.4,0.5-2.5,1.5-3.1,2.8h21.2
		C102.1,105.1,101,104.1,99.6,103.6z"/>
</g>
</svg>
