<?xml version="1.0" encoding="utf-8"?>
<!-- Generator: Adobe Illustrator 18.0.0, SVG Export Plug-In . SVG Version: 6.00 Build 0)  -->
<!DOCTYPE svg PUBLIC "-//W3C//DTD SVG 1.1//EN" "http://www.w3.org/Graphics/SVG/1.1/DTD/svg11.dtd">
<svg version="1.1" id="Layer_1" xmlns="http://www.w3.org/2000/svg" xmlns:xlink="http://www.w3.org/1999/xlink" x="0px" y="0px"
	 viewBox="0 0 184.3 184.3" enable-background="new 0 0 184.3 184.3" xml:space="preserve">
<linearGradient id="SVGID_1_" gradientUnits="userSpaceOnUse" x1="63.2916" y1="141.966" x2="120.9475" y2="42.103">
	<stop  offset="0" style="stop-color:#2D4F9D"/>
	<stop  offset="1" style="stop-color:#5BA59B"/>
</linearGradient>
<path fill="url(#SVGID_1_)" d="M115,39.8H69.3c-4.2,0-7.5,3.4-7.5,7.5v89.5c0,4.2,3.4,7.5,7.5,7.5H115c4.2,0,7.5-3.4,7.5-7.5V47.4
	C122.5,43.2,119.1,39.8,115,39.8z M113.8,139.3H70.4c-2.4,0-4.4-2-4.4-4.5V48.6c0-2.5,2-4.5,4.4-4.5h6.2c1,0,2,0.4,2.7,1.1
	c0.7,0.7,1.1,1.7,1.1,2.8c0,1.2,0.9,2.1,2,2.1h19.3c0.5,0,1-0.2,1.4-0.6c0.4-0.4,0.6-0.9,0.6-1.5c0-2.1,1.7-3.9,3.8-3.9h6.2
	c2.4,0,4.4,2,4.4,4.5v85.7l0.1,0.5C118.2,137.2,116.2,139.3,113.8,139.3z"/>
</svg>
