<?xml version="1.0" encoding="utf-8"?>
<!-- Generator: Adobe Illustrator 18.0.0, SVG Export Plug-In . SVG Version: 6.00 Build 0)  -->
<!DOCTYPE svg PUBLIC "-//W3C//DTD SVG 1.1//EN" "http://www.w3.org/Graphics/SVG/1.1/DTD/svg11.dtd">
<svg version="1.1" id="Layer_1" xmlns="http://www.w3.org/2000/svg" xmlns:xlink="http://www.w3.org/1999/xlink" x="0px" y="0px"
	 viewBox="0 0 184.3 184.3" enable-background="new 0 0 184.3 184.3" xml:space="preserve">
<g>
	<linearGradient id="SVGID_1_" gradientUnits="userSpaceOnUse" x1="80.325" y1="105.5427" x2="104.0335" y2="64.4783">
		<stop  offset="0" style="stop-color:#2D4F9D"/>
		<stop  offset="1" style="stop-color:#5BA59B"/>
	</linearGradient>
	<path fill="url(#SVGID_1_)" d="M86.1,108.8c0.3,0.3,0.7,0.4,1.1,0.4c0.3,0,0.8-0.1,1.2-0.5l30-33.4c0.6-0.7,0.5-1.7-0.1-2.2
		l-1.2-1.1c-0.4-0.3-0.8-0.4-1.1-0.4c-0.3,0-0.8,0.1-1.2,0.5L87,103L72.1,88.8c-0.3-0.3-0.7-0.4-1.1-0.4c-0.4,0-0.8,0.2-1.2,0.5
		l-1.2,1.2c-0.6,0.6-0.6,1.6,0.1,2.3L86.1,108.8z"/>
	<linearGradient id="SVGID_2_" gradientUnits="userSpaceOnUse" x1="60.3946" y1="134.5685" x2="116.4429" y2="37.49">
		<stop  offset="0" style="stop-color:#2D4F9D"/>
		<stop  offset="1" style="stop-color:#5BA59B"/>
	</linearGradient>
	<path fill="url(#SVGID_2_)" d="M132.2,47.4c-12.4-2.2-23.8-8.9-29.4-12.8c-3.2-2.1-6.9-3.3-10.7-3.3c-3.8,0-7.5,1.1-10.7,3.3
		c-5.7,3.8-17,10.5-29.4,12.8c-5.9,1.1-10.2,6.1-10.2,12.1v29.7c0,9.4,2.6,18.5,7.8,27.2c4.1,6.9,9.8,13.4,16.9,19.5
		c12.1,10.3,24,15.7,24.5,15.9l1,0.4l1-0.4c0.5-0.2,12.4-5.6,24.5-15.9c7.1-6.1,12.8-12.7,16.9-19.5c5.2-8.7,7.8-17.8,7.8-27.2V59.6
		C142.4,53.6,138.1,48.5,132.2,47.4z M137.5,89.3c0,15.4-7.7,29.8-22.9,42.9c-8.5,7.3-17.1,12.1-21.4,14.3l-1.1,0.6l-1.1-0.6
		c-10.4-5.3-44.3-25-44.3-57.1V59.6c0-3.6,2.6-6.7,6.2-7.3c13.3-2.4,25.3-9.5,31.3-13.5c2.4-1.6,5.1-2.4,8-2.4c2.8,0,5.6,0.8,8,2.4
		c6,4,18,11.1,31.3,13.5c3.6,0.6,6.2,3.7,6.2,7.3V89.3z"/>
</g>
</svg>
