<?xml version="1.0" encoding="utf-8"?>
<!-- Generator: Adobe Illustrator 18.0.0, SVG Export Plug-In . SVG Version: 6.00 Build 0)  -->
<!DOCTYPE svg PUBLIC "-//W3C//DTD SVG 1.1//EN" "http://www.w3.org/Graphics/SVG/1.1/DTD/svg11.dtd">
<svg version="1.1" id="Layer_1" xmlns="http://www.w3.org/2000/svg" xmlns:xlink="http://www.w3.org/1999/xlink" x="0px" y="0px"
	 viewBox="0 0 184.3 184.3" enable-background="new 0 0 184.3 184.3" xml:space="preserve">
<g>
	<g>
		<linearGradient id="SVGID_1_" gradientUnits="userSpaceOnUse" x1="63.3251" y1="168.5025" x2="121.0669" y2="68.4908">
			<stop  offset="0" style="stop-color:#2D4F9D"/>
			<stop  offset="1" style="stop-color:#5BA59B"/>
		</linearGradient>
		<path fill="url(#SVGID_1_)" d="M44.4,157.1h95.5c1.2,0,2.6-0.6,2.6-2.3V82.7c0-1.6-1.2-3-2.6-3h-22c-1.5,0-2.7,1.2-2.7,2.7
			c0,1.5,1.2,2.7,2.7,2.7h19.2v66.5H47.2V85.1h21c1.5,0,2.7-1.2,2.7-2.7c0-1.5-1.2-2.7-2.7-2.7H44.4c-1.4,0-2.6,1.4-2.6,3v72.1
			C41.8,156.5,43.2,157.1,44.4,157.1z"/>
		<linearGradient id="SVGID_2_" gradientUnits="userSpaceOnUse" x1="68.0652" y1="100.6912" x2="106.1322" y2="34.7572">
			<stop  offset="0" style="stop-color:#2D4F9D"/>
			<stop  offset="1" style="stop-color:#5BA59B"/>
		</linearGradient>
		<path fill="url(#SVGID_2_)" d="M94,111V35l26.3,23.5c0.5,0.4,1.1,0.7,1.8,0.7c0.8,0,1.5-0.3,2.1-0.9c0.4-0.5,0.7-1.2,0.7-1.9
			c0-0.7-0.4-1.4-0.9-1.8L94,27.8c-0.9-0.8-2.5-0.9-3.5-0.1l-0.2,0.2L90,28.1c-0.4,0.2-0.8,0.6-1.1,1.1l-0.2,0.3l-26.1,25
			c-0.5,0.5-0.8,1.2-0.8,1.9c0,0.7,0.2,1.4,0.7,1.9c1,1,2.8,1.1,3.8,0.1L88.6,37v74c0,1.5,1.2,2.7,2.7,2.7S94,112.5,94,111z"/>
	</g>
</g>
</svg>
