<?xml version="1.0" encoding="utf-8"?>
<!-- Generator: Adobe Illustrator 18.0.0, SVG Export Plug-In . SVG Version: 6.00 Build 0)  -->
<!DOCTYPE svg PUBLIC "-//W3C//DTD SVG 1.1//EN" "http://www.w3.org/Graphics/SVG/1.1/DTD/svg11.dtd">
<svg version="1.1" id="Layer_1" xmlns="http://www.w3.org/2000/svg" xmlns:xlink="http://www.w3.org/1999/xlink" x="0px" y="0px"
	 viewBox="0 0 184.3 184.3" enable-background="new 0 0 184.3 184.3" xml:space="preserve">
<g>
	<linearGradient id="SVGID_1_" gradientUnits="userSpaceOnUse" x1="90.9989" y1="90.7379" x2="93.2511" y2="86.8369">
		<stop  offset="0" style="stop-color:#2D4F9D"/>
		<stop  offset="1" style="stop-color:#5BA59B"/>
	</linearGradient>
	<circle fill="url(#SVGID_1_)" cx="92.1" cy="88.8" r="2.3"/>
	<linearGradient id="SVGID_2_" gradientUnits="userSpaceOnUse" x1="66.6021" y1="147.2041" x2="118.5316" y2="57.2596">
		<stop  offset="0" style="stop-color:#2D4F9D"/>
		<stop  offset="1" style="stop-color:#5BA59B"/>
	</linearGradient>
	<path fill="url(#SVGID_2_)" d="M84.8,46.2L50.5,68.1c-4,2.6-6.4,6.9-6.4,11.7v46.4c0,7.6,6.2,13.9,13.9,13.9h68.2
		c7.6,0,13.8-6.2,13.9-13.8V79.9c0-4.7-2.4-9.2-6.4-11.7l-34.3-22c-2.3-1.4-4.7-2.1-7.3-2.1C89.6,44.2,87,44.9,84.8,46.2z
		 M135.6,126.3c-0.1,5.1-4.3,9.2-9.3,9.2H58c-5.1,0-9.3-4.2-9.3-9.3V82l36.1,22.4c2.3,1.4,4.7,2.1,7.3,2.1s5.1-0.7,7.3-2.1L135.6,82
		V126.3z M97,50l34.3,21.9c1.4,0.9,2.5,2.1,3.3,3.5l0.7,1.3l-38.1,23.7c-1.5,1-3.2,1.4-4.9,1.4c-1.8,0-3.5-0.5-4.9-1.4L49,76.9
		l0.6-1.3c0.7-1.4,1.8-2.7,3.3-3.6l34.2-21.9C90.2,48.2,94.1,48.3,97,50z"/>
	<linearGradient id="SVGID_3_" gradientUnits="userSpaceOnUse" x1="88.1085" y1="75.4776" x2="96.1328" y2="61.5791">
		<stop  offset="0" style="stop-color:#2D4F9D"/>
		<stop  offset="1" style="stop-color:#5BA59B"/>
	</linearGradient>
	<path fill="url(#SVGID_3_)" d="M92.1,59.6c-1.3,0-2.3,1-2.3,2.3v13.4c0,1.3,1,2.3,2.3,2.3c1.3,0,2.3-1,2.3-2.3V61.9
		C94.4,60.6,93.3,59.6,92.1,59.6z"/>
</g>
</svg>
